<svg xmlns="http://www.w3.org/2000/svg" xmlns:xlink="http://www.w3.org/1999/xlink" width="500" zoomAndPan="magnify" viewBox="0 0 375 374.999991" height="500" preserveAspectRatio="xMidYMid meet" version="1.0"><defs><g/><clipPath id="4c922d4703"><path d="M 283.921875 154.433594 L 337.828125 154.433594 L 337.828125 208.339844 L 283.921875 208.339844 Z M 283.921875 154.433594 " clip-rule="nonzero"/></clipPath><clipPath id="533f7b2158"><path d="M 178.265625 187.039062 L 188.015625 187.039062 L 188.015625 195.289062 L 178.265625 195.289062 Z M 178.265625 187.039062 " clip-rule="nonzero"/></clipPath><clipPath id="1d7de523be"><path d="M 295.160156 164.1875 L 314.660156 164.1875 L 314.660156 187.4375 L 295.160156 187.4375 Z M 295.160156 164.1875 " clip-rule="nonzero"/></clipPath></defs><g clip-path="url(#4c922d4703)"><path fill="#eea320" d="M 337.824219 181.390625 C 337.824219 196.273438 325.757812 208.339844 310.875 208.339844 C 295.992188 208.339844 283.925781 196.273438 283.925781 181.390625 C 283.925781 166.507812 295.992188 154.441406 310.875 154.441406 C 325.757812 154.441406 337.824219 166.507812 337.824219 181.390625 M 331.148438 181.390625 C 331.148438 170.195312 322.070312 161.117188 310.875 161.117188 C 299.679688 161.117188 290.601562 170.195312 290.601562 181.390625 C 290.601562 192.585938 299.679688 201.664062 310.875 201.664062 C 322.070312 201.664062 331.148438 192.585938 331.148438 181.390625 Z M 331.148438 181.390625 " fill-opacity="1" fill-rule="nonzero"/></g><g fill="#3a495c" fill-opacity="1"><g transform="translate(37.500002, 194.301594)"><g><path d="M 32.109375 -12.953125 C 32.109375 -11.078125 31.753906 -9.332031 31.046875 -7.71875 C 30.347656 -6.101562 29.359375 -4.691406 28.078125 -3.484375 C 26.796875 -2.273438 25.28125 -1.328125 23.53125 -0.640625 C 21.78125 0.0351562 19.867188 0.375 17.796875 0.375 C 15.671875 0.375 13.734375 0.0351562 11.984375 -0.640625 C 10.234375 -1.328125 8.722656 -2.273438 7.453125 -3.484375 C 6.179688 -4.691406 5.191406 -6.101562 4.484375 -7.71875 C 3.785156 -9.332031 3.4375 -11.078125 3.4375 -12.953125 C 3.4375 -14.828125 3.785156 -16.570312 4.484375 -18.1875 C 5.191406 -19.800781 6.179688 -21.210938 7.453125 -22.421875 C 8.722656 -23.628906 10.234375 -24.570312 11.984375 -25.25 C 13.734375 -25.925781 15.671875 -26.265625 17.796875 -26.265625 C 19.867188 -26.265625 21.78125 -25.925781 23.53125 -25.25 C 25.28125 -24.570312 26.796875 -23.628906 28.078125 -22.421875 C 29.359375 -21.210938 30.347656 -19.800781 31.046875 -18.1875 C 31.753906 -16.570312 32.109375 -14.828125 32.109375 -12.953125 Z M 28.046875 -12.953125 C 28.046875 -14.753906 27.609375 -16.363281 26.734375 -17.78125 C 25.859375 -19.195312 24.648438 -20.316406 23.109375 -21.140625 C 21.566406 -21.972656 19.796875 -22.390625 17.796875 -22.390625 C 15.742188 -22.390625 13.945312 -21.972656 12.40625 -21.140625 C 10.863281 -20.316406 9.660156 -19.195312 8.796875 -17.78125 C 7.941406 -16.363281 7.515625 -14.753906 7.515625 -12.953125 C 7.515625 -11.148438 7.941406 -9.539062 8.796875 -8.125 C 9.660156 -6.707031 10.863281 -5.582031 12.40625 -4.75 C 13.945312 -3.925781 15.742188 -3.515625 17.796875 -3.515625 C 19.796875 -3.515625 21.566406 -3.925781 23.109375 -4.75 C 24.648438 -5.582031 25.859375 -6.710938 26.734375 -8.140625 C 27.609375 -9.566406 28.046875 -11.171875 28.046875 -12.953125 Z M 28.046875 -12.953125 "/></g></g></g><g fill="#3a495c" fill-opacity="1"><g transform="translate(73.053222, 194.301594)"><g><path d="M 26.78125 -25.90625 L 30.78125 -25.90625 L 30.78125 0 L 26.90625 0 L 8.6875 -20.125 C 8.84375 -18.550781 8.992188 -16.984375 9.140625 -15.421875 C 9.285156 -13.867188 9.359375 -12.316406 9.359375 -10.765625 L 9.359375 0 L 5.359375 0 L 5.359375 -25.90625 L 9.171875 -25.90625 L 27.375 -5.296875 C 27.226562 -6.503906 27.101562 -7.800781 27 -9.1875 C 26.90625 -10.582031 26.84375 -11.984375 26.8125 -13.390625 C 26.789062 -14.796875 26.78125 -16.128906 26.78125 -17.390625 Z M 26.78125 -25.90625 "/></g></g></g><g fill="#3a495c" fill-opacity="1"><g transform="translate(109.198377, 194.301594)"><g><path d="M 11.359375 0 L 11.359375 -22.046875 L 2.625 -22.046875 L 2.625 -25.90625 L 24.265625 -25.90625 L 24.265625 -22.046875 L 15.359375 -22.046875 L 15.359375 0 Z M 11.359375 0 "/></g></g></g><g fill="#3a495c" fill-opacity="1"><g transform="translate(136.094519, 194.301594)"><g><path d="M 27.015625 -17.796875 C 27.015625 -16.097656 26.484375 -14.550781 25.421875 -13.15625 C 24.359375 -11.757812 23.015625 -10.765625 21.390625 -10.171875 L 28.3125 0.03125 L 23.390625 0 L 16.90625 -9.625 L 9.359375 -9.625 L 9.359375 0 L 5.359375 0 L 5.359375 -25.90625 L 18.6875 -25.90625 C 20.144531 -25.90625 21.5 -25.554688 22.75 -24.859375 C 24.007812 -24.171875 25.035156 -23.222656 25.828125 -22.015625 C 26.617188 -20.804688 27.015625 -19.398438 27.015625 -17.796875 Z M 17.765625 -22.046875 L 9.359375 -22.046875 L 9.359375 -13.46875 L 18.234375 -13.46875 C 19.097656 -13.46875 19.875 -13.671875 20.5625 -14.078125 C 21.257812 -14.484375 21.8125 -15.019531 22.21875 -15.6875 C 22.625 -16.351562 22.828125 -17.066406 22.828125 -17.828125 C 22.828125 -18.648438 22.59375 -19.378906 22.125 -20.015625 C 21.65625 -20.660156 21.035156 -21.160156 20.265625 -21.515625 C 19.503906 -21.867188 18.671875 -22.046875 17.765625 -22.046875 Z M 17.765625 -22.046875 "/></g></g></g><g fill="#3a495c" fill-opacity="1"><g transform="translate(168.363278, 194.301594)"><g/></g></g><g fill="#3a495c" fill-opacity="1"><g transform="translate(182.976719, 194.301594)"><g/></g></g><g fill="#3a495c" fill-opacity="1"><g transform="translate(197.601554, 194.301594)"><g><path d="M 27.859375 -3.546875 C 27.242188 -2.953125 26.398438 -2.351562 25.328125 -1.75 C 24.253906 -1.144531 23.023438 -0.640625 21.640625 -0.234375 C 20.265625 0.171875 18.796875 0.375 17.234375 0.375 C 15.285156 0.375 13.476562 0.0625 11.8125 -0.5625 C 10.15625 -1.195312 8.695312 -2.09375 7.4375 -3.25 C 6.175781 -4.414062 5.191406 -5.816406 4.484375 -7.453125 C 3.785156 -9.097656 3.4375 -10.929688 3.4375 -12.953125 C 3.4375 -14.847656 3.804688 -16.597656 4.546875 -18.203125 C 5.285156 -19.804688 6.300781 -21.195312 7.59375 -22.375 C 8.894531 -23.5625 10.382812 -24.484375 12.0625 -25.140625 C 13.738281 -25.796875 15.515625 -26.125 17.390625 -26.125 C 18.941406 -26.125 20.414062 -25.90625 21.8125 -25.46875 C 23.207031 -25.039062 24.453125 -24.492188 25.546875 -23.828125 C 26.640625 -23.160156 27.519531 -22.457031 28.1875 -21.71875 L 25.671875 -18.609375 C 24.515625 -19.648438 23.238281 -20.5 21.84375 -21.15625 C 20.457031 -21.820312 18.898438 -22.15625 17.171875 -22.15625 C 15.960938 -22.15625 14.773438 -21.945312 13.609375 -21.53125 C 12.453125 -21.113281 11.414062 -20.503906 10.5 -19.703125 C 9.59375 -18.898438 8.867188 -17.929688 8.328125 -16.796875 C 7.785156 -15.660156 7.515625 -14.378906 7.515625 -12.953125 C 7.515625 -10.878906 7.992188 -9.144531 8.953125 -7.75 C 9.910156 -6.351562 11.160156 -5.3125 12.703125 -4.625 C 14.242188 -3.9375 15.90625 -3.59375 17.6875 -3.59375 C 18.945312 -3.59375 20.082031 -3.757812 21.09375 -4.09375 C 22.101562 -4.425781 23.007812 -4.84375 23.8125 -5.34375 C 24.613281 -5.851562 25.3125 -6.351562 25.90625 -6.84375 Z M 27.859375 -3.546875 "/></g></g></g><g fill="#3a495c" fill-opacity="1"><g transform="translate(228.974213, 194.301594)"><g><path d="M 9.359375 0 L 5.359375 0 L 5.359375 -25.90625 L 9.359375 -25.90625 L 9.359375 -12.46875 L 15.140625 -17.359375 L 25.015625 -25.90625 L 30.640625 -25.90625 L 18.203125 -15.359375 L 30.40625 0 L 25.234375 0 L 15.203125 -12.796875 L 9.359375 -7.8125 Z M 9.359375 0 "/></g></g></g><g fill="#3a495c" fill-opacity="1"><g transform="translate(198.828358, 169.02134)"><g><path d="M -28.78125 24.65625 L -17.453125 -0.328125 L -13.171875 -0.25 L -2.71875 25.15625 L -7.140625 25.078125 L -13.25 9.796875 C -13.601562 8.898438 -13.988281 7.941406 -14.40625 6.921875 C -14.832031 5.910156 -15.226562 4.929688 -15.59375 3.984375 C -15.945312 4.910156 -16.335938 5.867188 -16.765625 6.859375 C -17.203125 7.847656 -17.601562 8.785156 -17.96875 9.671875 L -24.203125 24.75 Z M -28.78125 24.65625 "/></g></g></g><g clip-path="url(#533f7b2158)"><path fill="#eea320" d="M 188.015625 187.042969 L 183.140625 195.285156 L 178.265625 187.042969 Z M 188.015625 187.042969 " fill-opacity="1" fill-rule="nonzero"/></g><g clip-path="url(#1d7de523be)"><path fill="#eea320" d="M 312.261719 181.003906 L 312.261719 170.273438 L 314.65625 170.273438 L 311.117188 164.1875 L 307.574219 170.273438 L 309.972656 170.273438 L 309.972656 181.003906 C 309.09375 181.332031 308.394531 182.027344 308.0625 182.898438 L 301.097656 182.898438 L 301.097656 180.636719 L 295.164062 184.035156 L 301.097656 187.4375 L 301.097656 185.171875 L 308.0625 185.171875 C 308.527344 186.398438 309.71875 187.273438 311.117188 187.273438 C 312.914062 187.273438 314.378906 185.820312 314.378906 184.035156 C 314.378906 182.648438 313.496094 181.464844 312.261719 181.003906 " fill-opacity="1" fill-rule="nonzero"/></g></svg>